<?xml version="1.0" encoding="UTF-8"?>
<svg width="911" height="465" version="1.1" viewBox="0 0 911 465" xmlns="http://www.w3.org/2000/svg"><g clip-rule="evenodd" fill="#fff" fill-rule="evenodd"><path d="m89.082 376-40.034-136.44 5.2948-5.383c32.663-33.209 48.596-49.315 64.524-65.416 15.918-16.091 31.833-32.179 64.472-65.363l18.323 18.021c-32.663 33.209-48.596 49.314-64.525 65.416-13.154 13.297-26.307 26.593-48.897 49.536l95.579 24.982 77.619-78.916 18.322 18.021-77.619 78.917 26.625 95.375 125.95-125.8 18.161 18.183-146.79 146.61-137.01-37.748zm114.73 4.954-26.442-94.719-95.144-24.869 27.483 93.661 94.103 25.927z"/><path d="m346.45 212.06-90.069 91.574-18.322-18.021 90.143-91.65 21.402-21.401 18.172 18.172-21.326 21.326z"/><path d="m303.14 97.282-126.15 128.26-18.322-18.022 126.15-128.26 18.322 18.021z"/><path d="m381.88 96.63-84.1 85.505-18.322-18.021 84.099-85.505 18.323 18.021z"/></g><g fill="#fff"><path d="m489.14 335.14v-119.52h28.493v119.52h-28.493zm0-136.92v-24.361h28.602v24.361h-28.602z"/><path d="m608.66 337.42c-18.271 0-32.518-5.437-42.741-16.313-10.15-10.876-15.226-26.428-15.226-46.656 0-19.576 5.329-34.766 15.987-45.569 10.731-10.803 24.833-16.204 42.306-16.204 13.994 0 25.812 3.009 35.455 9.027l-6.743 20.337c-9.861-5.148-19.032-7.722-27.515-7.722-9.643 0-17.256 3.444-22.839 10.332-5.51 6.888-8.265 16.93-8.265 30.125 0 13.341 2.719 23.491 8.156 30.452 5.511 6.96 13.268 10.44 23.274 10.44 10.44 0 20.482-3.081 30.125-9.244l2.719 21.642c-5.003 3.336-10.187 5.728-15.552 7.178s-11.746 2.175-19.141 2.175z"/><path d="m727.9 337.42c-19.214 0-34.186-5.51-44.916-16.53-10.658-11.094-15.987-26.392-15.987-45.895 0-18.996 5.039-34.113 15.117-45.351s23.817-16.894 41.218-16.966c16.459 0 29.219 5.148 38.282 15.443 9.136 10.296 13.703 23.963 13.703 41.001 0 1.232-0.036 3.226-0.108 5.981v6.091h-79.501c0.29 11.165 3.335 19.83 9.136 25.992 5.873 6.091 13.92 9.136 24.143 9.136 13.051 0 25.594-3.408 37.63-10.223l4.024 20.228c-11.963 7.396-26.21 11.093-42.741 11.093zm-31.648-74.171h52.203c0-9.715-2.212-17.183-6.634-22.404-4.423-5.22-10.55-7.83-18.38-7.83-7.323 0-13.522 2.538-18.597 7.613-5.003 5.075-7.867 12.616-8.592 22.621z"/><path d="m847.53 337.42c-15.589 0-27.842-5.727-36.76-17.183s-13.377-26.754-13.377-45.895c0-18.561 4.423-33.46 13.268-44.698 8.918-11.311 21.172-16.966 36.76-16.966 16.966 0 28.965 6.018 35.998 18.053-0.725-7.105-1.088-13.957-1.088-20.555v-38.608l28.494-1.849v165.42h-24.687l-3.154-16.313c-1.233 1.958-2.393 3.662-3.48 5.112-1.015 1.377-2.538 3.009-4.568 4.894-2.03 1.812-4.241 3.299-6.634 4.459-2.32 1.087-5.293 2.03-8.918 2.827-3.553 0.87-7.504 1.305-11.854 1.305zm6.742-21.642c19.141 0 28.857-13.014 29.147-39.043 0-14.718-2.465-25.449-7.395-32.192-4.931-6.743-12.29-10.114-22.078-10.114-8.555 0-15.407 3.444-20.555 10.332-5.075 6.815-7.613 16.893-7.613 30.234 0 13.268 2.538 23.382 7.613 30.342 5.148 6.961 12.108 10.441 20.881 10.441z"/></g></svg>
