<svg width="107" height="54" viewBox="0 0 107 54" fill="none" xmlns="http://www.w3.org/2000/svg">
<path d="M26.615 45.5075L43.1327 29.0096M26.615 45.5075L12.2685 41.5548L8.07858 27.2757M26.615 45.5075L22.5838 31.0671M32.2533 21.236L22.5838 31.0671M23.1367 12.0095C15.5137 19.7599 15.7016 19.5254 8.07858 27.2757M8.07858 27.2757L22.5838 31.0671" stroke="white" stroke-width="3"/>
<path d="M29.5244 33.2798L40.0428 22.5857L42.5366 20.0918" stroke="white" stroke-width="3"/>
<path d="M20.2563 24.1638L34.9821 9.19206" stroke="white" stroke-width="3"/>
<path d="M34.3569 19.0972L44.1741 9.11599" stroke="white" stroke-width="3"/>
<path d="M57.7646 38.0095V24.0574H61.0908V38.0095H57.7646ZM57.7646 22.0261V19.1824H61.1035V22.0261H57.7646Z" fill="white"/>
<path d="M71.7158 38.2761C69.583 38.2761 67.9199 37.6414 66.7265 36.3718C65.5416 35.1023 64.9492 33.2869 64.9492 30.9255C64.9492 28.6404 65.5712 26.8673 66.8154 25.6062C68.068 24.3451 69.7142 23.7146 71.7539 23.7146C73.3873 23.7146 74.7669 24.0658 75.8925 24.7683L75.1054 27.1423C73.9544 26.5414 72.8837 26.241 71.8935 26.241C70.7679 26.241 69.8792 26.643 69.2275 27.447C68.5843 28.2511 68.2627 29.4233 68.2627 30.9636C68.2627 32.5209 68.58 33.7058 69.2148 34.5183C69.858 35.3308 70.7636 35.7371 71.9316 35.7371C73.1504 35.7371 74.3226 35.3774 75.4482 34.658L75.7656 37.1843C75.1816 37.5736 74.5765 37.8529 73.9502 38.0222C73.3239 38.1915 72.5791 38.2761 71.7158 38.2761Z" fill="white"/>
<path d="M85.6354 38.2761C83.3926 38.2761 81.6449 37.6329 80.3923 36.3464C79.1481 35.0515 78.5261 33.2657 78.5261 30.989C78.5261 28.7716 79.1143 27.0069 80.2907 25.6951C81.4671 24.3832 83.071 23.7231 85.1022 23.7146C87.0235 23.7146 88.513 24.3155 89.571 25.5173C90.6374 26.7192 91.1706 28.3145 91.1706 30.3035C91.1706 30.4473 91.1664 30.6801 91.1579 31.0017C91.1579 31.3233 91.1579 31.5603 91.1579 31.7126H81.8776C81.9115 33.016 82.2669 34.0274 82.944 34.7468C83.6296 35.4578 84.569 35.8132 85.7624 35.8132C87.2858 35.8132 88.75 35.4154 90.155 34.6199L90.6247 36.9812C89.2282 37.8445 87.5651 38.2761 85.6354 38.2761ZM81.9411 29.6179H88.0348C88.0348 28.4838 87.7767 27.6121 87.2604 27.0027C86.7442 26.3933 86.029 26.0886 85.1149 26.0886C84.2601 26.0886 83.5365 26.3848 82.944 26.9773C82.36 27.5697 82.0257 28.45 81.9411 29.6179Z" fill="white"/>
<path d="M99.5998 38.2761C97.7801 38.2761 96.3498 37.6075 95.3088 36.2703C94.2677 34.933 93.7472 33.1472 93.7472 30.9128C93.7472 28.7462 94.2635 27.0069 95.2961 25.6951C96.3371 24.3748 97.7674 23.7146 99.5871 23.7146C101.568 23.7146 102.968 24.4171 103.789 25.822C103.705 24.9926 103.662 24.1928 103.662 23.4226V18.9158L106.988 18.7V38.0095H104.107L103.738 36.1052C103.595 36.3337 103.459 36.5326 103.332 36.7019C103.214 36.8627 103.036 37.0531 102.799 37.2732C102.562 37.4848 102.304 37.6583 102.025 37.7937C101.754 37.9207 101.407 38.0307 100.984 38.1238C100.569 38.2253 100.108 38.2761 99.5998 38.2761ZM100.387 35.7498C102.621 35.7498 103.755 34.2306 103.789 31.1921C103.789 29.474 103.501 28.2214 102.926 27.4343C102.35 26.6472 101.491 26.2537 100.349 26.2537C99.3501 26.2537 98.5503 26.6557 97.9494 27.4597C97.3569 28.2553 97.0607 29.4317 97.0607 30.989C97.0607 32.5378 97.3569 33.7185 97.9494 34.531C98.5503 35.3435 99.3628 35.7498 100.387 35.7498Z" fill="white"/>
</svg>
